<svg width="81" height="81" viewBox="0 0 81 81" fill="none" xmlns="http://www.w3.org/2000/svg">
<path d="M40.334 80.5C62.4254 80.5 80.334 62.5914 80.334 40.5C80.334 18.4086 62.4254 0.5 40.334 0.5C18.2426 0.5 0.333984 18.4086 0.333984 40.5C0.333984 62.5914 18.2426 80.5 40.334 80.5Z" fill="#79B175"/>
<path opacity="0.1" d="M53.7659 15.7856L50.3678 19.1837L46.852 15.668L24.5 38.02L33.5 47.02L31.7353 48.7847L36.9179 53.9673L33.6106 57.275L54.3184 77.9828C68.9762 72.5122 79.5602 58.6943 80.2896 42.3094L53.7659 15.7856Z" fill="black"/>
<mask id="mask0_2074_2622" style="mask-type:luminance" maskUnits="userSpaceOnUse" x="0" y="0" width="81" height="81">
<path d="M40.334 80.5C62.4254 80.5 80.334 62.5914 80.334 40.5C80.334 18.4086 62.4254 0.5 40.334 0.5C18.2426 0.5 0.333984 18.4086 0.333984 40.5C0.333984 62.5914 18.2426 80.5 40.334 80.5Z" fill="white"/>
</mask>
<g mask="url(#mask0_2074_2622)">
<path d="M23.2448 35.304C23.0279 33.1732 24.1888 31.265 25.8368 31.0429C27.4848 30.8198 28.9959 32.3676 29.2138 34.4975C29.4307 36.6287 28.2688 38.536 26.6227 38.7596C24.9738 38.9826 23.4627 37.4344 23.2448 35.304Z" fill="#FEE1B9"/>
<path d="M53.891 38.7676C52.2487 38.5846 51.14 36.7045 51.4176 34.569C51.6934 32.4321 53.2487 30.8462 54.891 31.0278C56.5324 31.2104 57.6402 33.0895 57.3635 35.2269C57.0877 37.3629 55.5324 38.9488 53.891 38.7676Z" fill="#FFD9AC"/>
<path d="M40.4606 18.1201C40.4606 18.1201 26.9062 19.8152 26.9062 27.0439C26.9062 27.0439 26.9062 36.8246 26.9062 39.6712C26.9062 42.5173 31.5081 50.6505 35.6582 50.9888C37.7326 51.1582 40.4606 51.3912 40.4606 51.3912C40.4606 51.3912 43.1886 51.1582 45.2639 50.9888C49.4126 50.6505 54.015 42.5173 54.015 39.6712C54.015 36.8246 54.015 27.0439 54.015 27.0439C54.015 19.8147 40.4606 18.1201 40.4606 18.1201Z" fill="#FEE1B9"/>
<path d="M53.9684 27.0439C53.9684 27.0439 53.9684 36.8246 53.9684 39.6712C53.9684 42.5173 49.3665 50.6505 45.2164 50.9888C43.1411 51.1582 40.4141 51.3912 40.4141 51.3912V18.1201C40.4141 18.1201 53.9684 19.8147 53.9684 27.0439Z" fill="#FFD9AC"/>
<path d="M40.3274 46.8267C42.2177 46.8267 43.7504 45.4785 43.7504 43.8154H36.9043C36.9043 45.4785 38.437 46.8267 40.3274 46.8267Z" fill="white"/>
<path d="M48.3998 35.7351C48.3998 35.0852 47.8732 34.5586 47.2238 34.5586C46.5739 34.5586 46.0469 35.0852 46.0469 35.7351C46.0469 36.3845 46.5739 36.9111 47.2238 36.9111C47.8732 36.9111 48.3998 36.3845 48.3998 35.7351Z" fill="#726658"/>
<path d="M34.7279 35.2653C34.7279 34.6155 34.2009 34.0889 33.551 34.0889C32.9016 34.0889 32.375 34.6155 32.375 35.2653C32.375 35.9147 32.9016 36.4413 33.551 36.4413C34.2009 36.4413 34.7279 35.9147 34.7279 35.2653Z" fill="#726658"/>
<path d="M69.3166 80.5005C69.3166 80.5005 67.2837 64.9908 64.3467 60.9245C60.6197 56.4064 46.8027 58.9664 46.8027 53.1188C46.8027 53.1005 46.8018 53.0887 46.8018 53.0713V47.7344H34.038V53.1344C33.9387 58.9019 20.0314 56.4224 16.3175 60.9245C13.3811 64.9908 11.3477 80.5005 11.3477 80.5005H69.3166Z" fill="#FEE1B9"/>
<path d="M40.3594 47.7348V80.5005H69.3161C69.3161 80.5005 67.2831 64.9908 64.3462 60.9245C60.6191 56.4064 46.8022 58.9664 46.8022 53.1188C46.8022 53.1005 46.8013 53.0887 46.8013 53.0713V47.7344L40.3594 47.7348Z" fill="#FFD9AC"/>
<path d="M64.3467 60.9247C60.718 56.5257 47.5298 58.8334 46.8366 53.5614C45.0324 54.4188 42.8164 54.9257 40.4192 54.9257C38.0192 54.9257 35.8013 54.4174 33.9975 53.5586C33.2262 58.776 19.9368 56.5379 16.3175 60.9247C13.3811 64.9911 11.3477 80.5007 11.3477 80.5007H69.3166C69.3166 80.5007 67.2832 64.9906 64.3467 60.9247Z" fill="#22601D"/>
<path d="M46.8365 53.5615C45.0323 54.4189 42.8163 54.9258 40.4191 54.9258C40.3989 54.9258 40.3796 54.9244 40.3594 54.9244V80.5008H69.3161C69.3161 80.5008 67.2831 64.9912 64.3462 60.9248C60.718 56.5262 47.5297 58.8335 46.8365 53.5615Z" fill="#2E612A"/>
<path d="M51.7711 32.4877V24.6604C51.7711 24.6604 46.292 21.7903 40.4219 21.9206C40.4219 13.963 40.4219 10.7018 40.4219 10.7018C40.4219 10.7018 41.8359 10.5001 45.8359 13.1291C47.5186 13.6589 51.7711 14 51.7711 16.2767C53.9292 17.6001 55.5287 17.3685 55.5287 19.7032C55.5287 26.8783 54.3809 31.1832 54.3809 31.1832C54.3809 31.1832 52.5532 31.1832 51.7711 32.4877Z" fill="#191919"/>
<path d="M29.0699 32.488V24.6607C29.0699 24.6607 34.549 21.7906 40.4191 21.921C40.4191 13.9633 40.4191 10.7021 40.4191 10.7021C40.4191 10.7021 36.832 11.501 34.0561 11.6698C32.8365 12.0377 31.7947 11.5412 31.332 12.2281C29.981 12.6458 27.832 14.501 27.332 15.9074C26.8428 17.2836 24.7227 18.3171 24.7227 19.7036C24.7227 26.8786 26.4605 31.1836 26.4605 31.1836C26.4605 31.1836 28.2869 31.1836 29.0699 32.488Z" fill="#343434"/>
</g>
<mask id="mask1_2074_2622" style="mask-type:luminance" maskUnits="userSpaceOnUse" x="0" y="0" width="81" height="81">
<path d="M40.334 80.5C62.4254 80.5 80.334 62.5914 80.334 40.5C80.334 18.4086 62.4254 0.5 40.334 0.5C18.2426 0.5 0.333984 18.4086 0.333984 40.5C0.333984 62.5914 18.2426 80.5 40.334 80.5Z" fill="white"/>
</mask>
<g mask="url(#mask1_2074_2622)">
<path d="M35.9471 33.0263C35.8751 33.0263 35.8041 32.9934 35.758 32.9312C35.3382 32.3656 34.4968 32.0145 33.5617 32.0145C32.6267 32.0145 31.7853 32.3661 31.3655 32.9312C31.2888 33.0357 31.141 33.0578 31.0366 32.9802C30.9321 32.903 30.9104 32.7552 30.9876 32.6512C31.494 31.9684 32.4803 31.5439 33.5613 31.5439C34.6422 31.5439 35.6286 31.9679 36.1349 32.6512C36.2126 32.7557 36.1904 32.903 36.086 32.9802C36.045 33.0112 35.9956 33.0263 35.9471 33.0263Z" fill="#191919"/>
</g>
<mask id="mask2_2074_2622" style="mask-type:luminance" maskUnits="userSpaceOnUse" x="0" y="0" width="81" height="81">
<path d="M40.334 80.5C62.4254 80.5 80.334 62.5914 80.334 40.5C80.334 18.4086 62.4254 0.5 40.334 0.5C18.2426 0.5 0.333984 18.4086 0.333984 40.5C0.333984 62.5914 18.2426 80.5 40.334 80.5Z" fill="white"/>
</mask>
<g mask="url(#mask2_2074_2622)">
<path d="M49.6342 33.0263C49.5622 33.0263 49.4911 32.9934 49.445 32.9312C49.0252 32.3656 48.1838 32.0145 47.2492 32.0145C46.3142 32.0145 45.4728 32.3661 45.053 32.9312C44.9763 33.0357 44.8285 33.0578 44.7241 32.9802C44.6196 32.903 44.5979 32.7552 44.6751 32.6512C45.1815 31.9684 46.1678 31.5439 47.2488 31.5439C48.3297 31.5439 49.3161 31.9679 49.8224 32.6512C49.9001 32.7557 49.8779 32.903 49.7735 32.9802C49.7321 33.0112 49.6831 33.0263 49.6342 33.0263Z" fill="#191919"/>
</g>
</svg>
