<svg width="81" height="81" viewBox="0 0 81 81" fill="none" xmlns="http://www.w3.org/2000/svg">
<path d="M40.666 80.5C62.7574 80.5 80.666 62.5914 80.666 40.5C80.666 18.4086 62.7574 0.5 40.666 0.5C18.5746 0.5 0.666016 18.4086 0.666016 40.5C0.666016 62.5914 18.5746 80.5 40.666 80.5Z" fill="#A85252"/>
<path opacity="0.1" d="M54.0979 15.7856L50.6998 19.1837L47.184 15.668L24.832 38.02L33.832 47.02L32.0673 48.7847L37.2499 53.9673L33.9426 57.275L54.6504 77.9828C69.3083 72.5122 79.8923 58.6943 80.6217 42.3094L54.0979 15.7856Z" fill="black"/>
<mask id="mask0_2074_2667" style="mask-type:luminance" maskUnits="userSpaceOnUse" x="0" y="0" width="81" height="81">
<path d="M40.666 80.5C62.7574 80.5 80.666 62.5914 80.666 40.5C80.666 18.4086 62.7574 0.5 40.666 0.5C18.5746 0.5 0.666016 18.4086 0.666016 40.5C0.666016 62.5914 18.5746 80.5 40.666 80.5Z" fill="white"/>
</mask>
<g mask="url(#mask0_2074_2667)">
<path d="M23.5769 35.304C23.3599 33.1732 24.5208 31.265 26.1688 31.0429C27.8168 30.8198 29.3279 32.3676 29.5458 34.4975C29.7627 36.6287 28.6009 38.536 26.9547 38.7596C25.3058 38.9826 23.7947 37.4344 23.5769 35.304Z" fill="#FEE1B9"/>
<path d="M54.223 38.7676C52.5807 38.5846 51.472 36.7045 51.7496 34.569C52.0254 32.4321 53.5807 30.8462 55.223 31.0278C56.8645 31.2104 57.9722 33.0895 57.6955 35.2269C57.4197 37.3629 55.8645 38.9488 54.223 38.7676Z" fill="#FFD9AC"/>
<path d="M40.7926 18.1201C40.7926 18.1201 27.2383 19.8152 27.2383 27.0439C27.2383 27.0439 27.2383 36.8246 27.2383 39.6712C27.2383 42.5173 31.8402 50.6505 35.9903 50.9888C38.0646 51.1582 40.7926 51.3912 40.7926 51.3912C40.7926 51.3912 43.5206 51.1582 45.5959 50.9888C49.7446 50.6505 54.347 42.5173 54.347 39.6712C54.347 36.8246 54.347 27.0439 54.347 27.0439C54.347 19.8147 40.7926 18.1201 40.7926 18.1201Z" fill="#FEE1B9"/>
<path d="M54.3004 27.0439C54.3004 27.0439 54.3004 36.8246 54.3004 39.6712C54.3004 42.5173 49.6986 50.6505 45.5484 50.9888C43.4732 51.1582 40.7461 51.3912 40.7461 51.3912V18.1201C40.7461 18.1201 54.3004 19.8147 54.3004 27.0439Z" fill="#FFD9AC"/>
<path d="M40.6594 46.8267C42.5497 46.8267 44.0824 45.4785 44.0824 43.8154H37.2363C37.2363 45.4785 38.769 46.8267 40.6594 46.8267Z" fill="white"/>
<path d="M48.7318 35.7351C48.7318 35.0852 48.2053 34.5586 47.5558 34.5586C46.906 34.5586 46.3789 35.0852 46.3789 35.7351C46.3789 36.3845 46.906 36.9111 47.5558 36.9111C48.2053 36.9111 48.7318 36.3845 48.7318 35.7351Z" fill="#726658"/>
<path d="M35.06 35.2653C35.06 34.6155 34.5329 34.0889 33.883 34.0889C33.2336 34.0889 32.707 34.6155 32.707 35.2653C32.707 35.9147 33.2336 36.4413 33.883 36.4413C34.5329 36.4413 35.06 35.9147 35.06 35.2653Z" fill="#726658"/>
<path d="M69.6486 80.5005C69.6486 80.5005 67.6157 64.9908 64.6787 60.9245C60.9517 56.4064 47.1347 58.9664 47.1347 53.1188C47.1347 53.1005 47.1338 53.0887 47.1338 53.0713V47.7344H34.37V53.1344C34.2707 58.9019 20.3635 56.4224 16.6496 60.9245C13.7131 64.9908 11.6797 80.5005 11.6797 80.5005H69.6486Z" fill="#FEE1B9"/>
<path d="M40.6914 47.7348V80.5005H69.6481C69.6481 80.5005 67.6152 64.9908 64.6782 60.9245C60.9512 56.4064 47.1342 58.9664 47.1342 53.1188C47.1342 53.1005 47.1333 53.0887 47.1333 53.0713V47.7344L40.6914 47.7348Z" fill="#FFD9AC"/>
<path d="M64.6787 60.9247C61.05 56.5257 47.8618 58.8334 47.1686 53.5614C45.3644 54.4188 43.1484 54.9257 40.7512 54.9257C38.3512 54.9257 36.1333 54.4174 34.3296 53.5586C33.5583 58.776 20.2689 56.5379 16.6496 60.9247C13.7131 64.9911 11.6797 80.5007 11.6797 80.5007H69.6486C69.6486 80.5007 67.6152 64.9906 64.6787 60.9247Z" fill="#A22828"/>
<path d="M47.1686 53.5615C45.3643 54.4189 43.1483 54.9258 40.7512 54.9258C40.7309 54.9258 40.7116 54.9244 40.6914 54.9244V80.5008H69.6481C69.6481 80.5008 67.6152 64.9912 64.6782 60.9248C61.05 56.5262 47.8618 58.8335 47.1686 53.5615Z" fill="#933333"/>
<path d="M52.1031 32.4877V24.6604C52.1031 24.6604 46.624 21.7903 40.7539 21.9206C40.7539 13.963 40.7539 10.7018 40.7539 10.7018C40.7539 10.7018 42.168 10.5001 46.168 13.1291C47.8506 13.6589 52.1031 14 52.1031 16.2767C54.2612 17.6001 55.8607 17.3685 55.8607 19.7032C55.8607 26.8783 54.713 31.1832 54.713 31.1832C54.713 31.1832 52.8852 31.1832 52.1031 32.4877Z" fill="#191919"/>
<path d="M29.402 32.488V24.6607C29.402 24.6607 34.881 21.7906 40.7512 21.921C40.7512 13.9633 40.7512 10.7021 40.7512 10.7021C40.7512 10.7021 37.1641 11.501 34.3881 11.6698C33.1685 12.0377 32.1267 11.5412 31.6641 12.2281C30.3131 12.6458 28.1641 14.501 27.6641 15.9074C27.1748 17.2836 25.0547 18.3171 25.0547 19.7036C25.0547 26.8786 26.7926 31.1836 26.7926 31.1836C26.7926 31.1836 28.6189 31.1836 29.402 32.488Z" fill="#343434"/>
</g>
<mask id="mask1_2074_2667" style="mask-type:luminance" maskUnits="userSpaceOnUse" x="0" y="0" width="81" height="81">
<path d="M40.666 80.5C62.7574 80.5 80.666 62.5914 80.666 40.5C80.666 18.4086 62.7574 0.5 40.666 0.5C18.5746 0.5 0.666016 18.4086 0.666016 40.5C0.666016 62.5914 18.5746 80.5 40.666 80.5Z" fill="white"/>
</mask>
<g mask="url(#mask1_2074_2667)">
<path d="M36.2792 33.0263C36.2072 33.0263 36.1361 32.9934 36.09 32.9312C35.6702 32.3656 34.8288 32.0145 33.8938 32.0145C32.9587 32.0145 32.1173 32.3661 31.6975 32.9312C31.6208 33.0357 31.4731 33.0578 31.3686 32.9802C31.2641 32.903 31.2425 32.7552 31.3196 32.6512C31.826 31.9684 32.8124 31.5439 33.8933 31.5439C34.9742 31.5439 35.9606 31.9679 36.4669 32.6512C36.5446 32.7557 36.5225 32.903 36.418 32.9802C36.3771 33.0112 36.3276 33.0263 36.2792 33.0263Z" fill="#191919"/>
</g>
<mask id="mask2_2074_2667" style="mask-type:luminance" maskUnits="userSpaceOnUse" x="0" y="0" width="81" height="81">
<path d="M40.666 80.5C62.7574 80.5 80.666 62.5914 80.666 40.5C80.666 18.4086 62.7574 0.5 40.666 0.5C18.5746 0.5 0.666016 18.4086 0.666016 40.5C0.666016 62.5914 18.5746 80.5 40.666 80.5Z" fill="white"/>
</mask>
<g mask="url(#mask2_2074_2667)">
<path d="M49.9662 33.0263C49.8942 33.0263 49.8231 32.9934 49.777 32.9312C49.3573 32.3656 48.5158 32.0145 47.5813 32.0145C46.6462 32.0145 45.8048 32.3661 45.385 32.9312C45.3083 33.0357 45.1606 33.0578 45.0561 32.9802C44.9516 32.903 44.93 32.7552 45.0071 32.6512C45.5135 31.9684 46.4998 31.5439 47.5808 31.5439C48.6617 31.5439 49.6481 31.9679 50.1544 32.6512C50.2321 32.7557 50.21 32.903 50.1055 32.9802C50.0641 33.0112 50.0151 33.0263 49.9662 33.0263Z" fill="#191919"/>
</g>
</svg>
