<svg width="99" height="151" viewBox="0 0 99 151" fill="none" xmlns="http://www.w3.org/2000/svg">
<path d="M61.0584 69.2373L58.3088 67.9701V58.4961H40.6664V67.9701L37.9062 69.1612L38.6413 93.9428H40.6664V97.7426H58.3088V93.9428H60.3233L61.0584 69.2373Z" fill="#F6CCB8"/>
<path d="M40.668 58.4961V66.2908L58.3104 67.4004V58.4961H40.668Z" fill="#F6CCB8"/>
<path d="M61.3096 69.124L60.6533 71.3653C59.5191 74.3226 56.6111 79.1596 49.7055 79.1596C41.9152 79.1596 38.9424 73.0013 38.0209 70.3331L37.6673 69.124C23.318 74.0311 27.7207 114.93 27.7207 114.93L27.6306 148.901L49.5235 148.904L72.5925 148.901L71.9913 114.93C71.9913 114.93 75.659 74.0311 61.3096 69.124Z" fill="white"/>
<path d="M53.7343 78.0548L52.041 81.0066H46.8874L45.2422 78.0548L49.4883 74.896L53.7343 78.0548Z" fill="#F15D44"/>
<path d="M49.487 74.8958L44.0612 80.0952L34.7832 70.0214C34.799 70.0142 40.573 67.397 40.573 67.397L42.7512 69.2313L49.487 74.8958Z" fill="#E6E7E8"/>
<path d="M58.4049 67.4004L49.4883 74.8952L54.914 80.0978L64.1894 70.0184L58.4049 67.4004Z" fill="#E6E7E8"/>
<path d="M52.043 81.7119L54.1406 143.182L49.4902 147.862L44.8398 143.182L46.8894 81.7119H52.043Z" fill="#F15D44"/>
<path d="M97.8867 118.953C99.2427 115.041 99.2225 110.823 97.8252 106.924C95.1158 99.3614 89.9393 83.4565 88.492 80.4238C85.246 73.734 74.7938 73.984 61.736 69.7356C61.2714 69.582 60.7988 69.4283 60.3263 69.2681C59.5579 73.5082 49.4439 114.497 49.4439 114.497C49.4439 114.497 39.3299 73.5082 38.5623 69.2689L38.5614 69.2681C38.0889 69.4283 37.6164 69.582 37.1518 69.7356C24.0939 73.984 13.6418 73.734 10.3958 80.4238C8.94931 83.4557 3.77287 99.3589 1.06345 106.922C-0.333849 110.822 -0.354029 115.042 1.002 118.956C3.99772 127.6 10.1481 139.348 12.8031 143.078C15.1656 146.398 19.2943 147.599 22.2812 146.666C21.8728 148.455 21.7429 149.779 22.1688 149.779C22.1688 149.779 35.4111 149.779 49.443 149.779L49.4448 149.611L49.4465 149.779C63.4784 149.779 76.7207 149.779 76.7207 149.779C77.1467 149.779 77.0167 148.454 76.6083 146.666C79.5953 147.599 83.724 146.397 86.0865 143.078C88.7397 139.347 94.8918 127.597 97.8867 118.953Z" fill="#42404D"/>
<path d="M31.2793 70.3112L31.5663 78.7404L35.7765 82.2032L32.5001 86.6821L49.3698 116.525L38.7029 66.4922L31.2793 70.3112Z" fill="#4F4C4D"/>
<path d="M67.691 70.3112L67.4031 78.7404L63.1937 82.2032L66.4693 86.6821L49.5996 116.525L60.2665 66.4922L67.691 70.3112Z" fill="#4F4C4D"/>
<path d="M68.7395 33.3585L69.3363 25.5953C69.3363 15.4439 59.633 7.21777 49.4886 7.21777C39.3372 7.21777 29.6408 15.4439 29.6408 25.5953L30.2377 33.3506C29.6697 33.4872 29.1578 33.7479 28.7299 34.1146C27.9361 34.7911 27.4355 35.7905 27.4355 36.915V40.7375C27.4355 42.7582 29.0633 44.3982 31.0883 44.4104C31.0883 53.9965 42.6067 63.0846 49.4886 63.0846C56.3706 63.0846 67.8889 53.9982 67.8889 44.4121C69.9069 44.3981 71.539 42.7599 71.539 40.7393V36.9167C71.539 35.191 70.3436 33.7532 68.7395 33.3585Z" fill="#F6CCB8"/>
<path opacity="0.8" d="M68.7392 33.3585L69.3361 25.5953C69.3361 15.4439 59.6327 7.21777 49.4883 7.21777C49.4848 7.21777 49.4848 33.3139 49.4848 33.3139C46.8035 39.0162 45.0742 47.2808 45.0742 47.2808H49.4848V63.0855C56.3729 63.0837 67.8886 53.9982 67.8886 44.413C69.9067 44.399 71.5387 42.7608 71.5387 40.7402V36.9176C71.5387 35.191 70.3433 33.7532 68.7392 33.3585Z" fill="#F6CCB8"/>
<path d="M44.002 37.5478C44.058 39.1501 42.804 40.4943 41.2016 40.5503C39.5993 40.6063 38.2551 39.3532 38.1991 37.75C38.1431 36.1476 39.3971 34.8034 40.9994 34.7474C42.6018 34.6914 43.946 35.9454 44.002 37.5478Z" fill="#F7CDB9"/>
<path d="M44.002 36.8129C44.058 38.4153 42.804 39.7595 41.2016 39.8155C39.5993 39.8715 38.2551 38.6183 38.1991 37.0151C38.1431 35.4127 39.3971 34.0686 40.9994 34.0125C42.6018 33.9565 43.946 35.2106 44.002 36.8129Z" fill="#3C2415"/>
<path d="M42.8147 38.1879C42.8287 38.5887 42.5154 38.9247 42.1146 38.9387C41.7138 38.9527 41.3777 38.6394 41.3637 38.2386C41.3497 37.8378 41.663 37.5018 42.0638 37.4878C42.4647 37.4738 42.8007 37.7879 42.8147 38.1879Z" fill="white"/>
<path d="M60.9024 37.5478C60.9584 39.1501 59.7043 40.4943 58.102 40.5503C56.4997 40.6063 55.1555 39.3532 55.0995 37.75C55.0435 36.1476 56.2975 34.8034 57.8999 34.7474C59.5022 34.6914 60.8464 35.9454 60.9024 37.5478Z" fill="#F7CDB9"/>
<path d="M60.9024 36.8129C60.9584 38.4153 59.7043 39.7595 58.102 39.8155C56.4997 39.8715 55.1555 38.6183 55.0995 37.0151C55.0435 35.4127 56.2975 34.0686 57.8999 34.0125C59.5022 33.9565 60.8464 35.2106 60.9024 36.8129Z" fill="#3C2415"/>
<path d="M59.7151 38.1879C59.7291 38.5887 59.4158 38.9247 59.015 38.9387C58.6142 38.9527 58.2781 38.6394 58.2641 38.2386C58.2501 37.8378 58.5634 37.5018 58.9642 37.4878C59.365 37.4738 59.7011 37.7879 59.7151 38.1879Z" fill="white"/>
<path d="M42.0445 2.41903C22.1425 -4.19688 25.9632 33.8236 27.941 40.1516C28.3007 41.3094 29.8479 43.0929 29.8558 43.0929C30.4587 44.2218 28.2604 65.8321 49.5154 65.8321C70.7703 65.8321 68.5729 44.2209 69.1749 43.0929C69.182 43.0929 70.7301 41.3094 71.0897 40.1516C73.0684 33.8236 79.1128 -8.97504 42.0445 2.41903ZM66.7789 42.4602C66.7789 44.8712 65.2964 48.4408 63.1926 50.023C62.2886 50.703 61.0801 50.815 60.0396 50.3704C58.2858 49.6204 54.367 48.9483 49.5154 48.9483C44.6637 48.9483 40.7449 49.6204 38.9912 50.3704C37.9506 50.815 36.7421 50.703 35.8381 50.023C33.7352 48.4408 32.2519 44.8712 32.2519 42.4602C32.2519 42.4602 29.3237 31.901 31.5255 24.1422C32.6159 20.3021 37.324 18.138 41.1973 19.1076C44.01 19.8112 46.9285 20.0457 49.5154 20.051C52.1013 20.0457 55.0208 19.8112 57.8334 19.1076C61.7058 18.138 66.4148 20.3021 67.5052 24.1422C69.707 31.901 66.7789 42.4602 66.7789 42.4602Z" fill="#4F3C30"/>
<path d="M44.683 52.4082H54.2953C54.599 52.4082 54.7521 52.7836 54.5272 52.9875C53.8385 53.6106 52.3473 54.5129 49.4891 54.5129C46.6301 54.5129 45.1398 53.6106 44.4511 52.9875C44.2262 52.7845 44.3793 52.4082 44.683 52.4082Z" fill="#F6CCB8"/>
<path d="M69.4509 31.7483H65.4726C64.215 31.0894 62.456 30.6693 59.9925 30.6693C55.8961 30.6693 53.1167 31.4543 51.6894 32.9866C51.0147 32.6156 50.0074 32.1938 48.868 32.1938C47.7391 32.1938 46.7397 32.6077 46.065 32.9761C44.6351 31.4508 41.8592 30.6685 37.7723 30.6685C35.3089 30.6685 33.5499 31.0885 32.2923 31.7475H28.2852V34.6135L29.6005 35.0747C29.4657 35.612 29.4115 36.1572 29.4115 36.6823C29.4115 41.0054 30.7801 43.5082 37.7732 43.5082C43.6803 43.5082 46.023 41.8236 47.0574 36.8319C47.1843 36.2211 47.1974 35.6391 47.1125 35.0922C47.4389 34.8839 47.9771 34.701 48.868 34.701C49.7816 34.701 50.326 34.8927 50.6497 35.1088C50.5684 35.6505 50.5824 36.2272 50.7075 36.8319C51.7419 41.8236 54.0846 43.5082 59.9917 43.5082C66.9848 43.5082 68.3535 41.0054 68.3535 36.6823C68.3535 36.1537 68.2974 35.6059 68.1609 35.0651L69.45 34.6126V31.7483H69.4509ZM45.6178 36.5335C44.7217 40.8549 43.0353 42.038 37.7723 42.038C31.3603 42.038 30.8808 39.9176 30.8808 36.6823C30.8808 35.5577 30.8808 32.1378 37.7723 32.1378C42.5269 32.1378 44.4005 33.2142 45.1356 34.1173C45.6554 34.7561 45.8173 35.5691 45.6178 36.5335ZM59.9917 42.0389C54.7287 42.0389 53.0423 40.8557 52.1462 36.5344C51.9467 35.5691 52.1086 34.757 52.6284 34.1191C53.3635 33.2159 55.2371 32.1395 59.9917 32.1395C66.8833 32.1395 66.8833 35.5595 66.8833 36.684C66.8833 39.9176 66.4037 42.0389 59.9917 42.0389Z" fill="#43414D"/>
<path d="M84.5976 150.5H14.3814C13.4721 150.5 12.7344 149.763 12.7344 148.853C12.7344 147.944 13.4712 147.206 14.3814 147.206H84.5976C85.5068 147.206 86.2445 147.943 86.2445 148.853C86.2445 149.762 85.5077 150.5 84.5976 150.5Z" fill="#ADADAE"/>
<path d="M81.8689 147.325H17.11C14.6938 147.325 12.7344 145.366 12.7344 142.95V98.3351C12.7344 95.9189 14.6938 93.9595 17.11 93.9595H81.8689C84.2851 93.9595 86.2445 95.9189 86.2445 98.3351V142.95C86.2445 145.366 84.2851 147.325 81.8689 147.325Z" fill="#E1E1E1"/>
<path opacity="0.5" d="M55.5011 118.948C55.5011 122.268 52.8101 124.959 49.4908 124.959C46.1714 124.959 43.4805 122.268 43.4805 118.948C43.4805 115.629 46.1714 112.938 49.4908 112.938C52.8101 112.938 55.5011 115.628 55.5011 118.948Z" fill="white"/>
<path opacity="0.2" d="M69.528 93.9595H15.7973C14.1057 93.9595 12.7344 95.3308 12.7344 97.0224V144.262C12.7344 145.954 14.1057 147.325 15.7973 147.325H26.388C28.5548 121.891 46.0835 100.911 69.528 93.9595Z" fill="white"/>
</svg>
