<svg width="80" height="81" viewBox="0 0 80 81" fill="none" xmlns="http://www.w3.org/2000/svg">
<path d="M40 80.5C62.0914 80.5 80 62.5914 80 40.5C80 18.4086 62.0914 0.5 40 0.5C17.9086 0.5 0 18.4086 0 40.5C0 62.5914 17.9086 80.5 40 80.5Z" fill="#1F527B"/>
<path opacity="0.1" d="M53.4319 15.7856L50.0338 19.1837L46.518 15.668L24.166 38.02L33.166 47.02L31.4013 48.7847L36.5839 53.9673L33.2766 57.275L53.9844 77.9828C68.6423 72.5122 79.2263 58.6943 79.9557 42.3094L53.4319 15.7856Z" fill="black"/>
<mask id="mask0_2074_2577" style="mask-type:luminance" maskUnits="userSpaceOnUse" x="0" y="0" width="80" height="81">
<path d="M40 80.5C62.0914 80.5 80 62.5914 80 40.5C80 18.4086 62.0914 0.5 40 0.5C17.9086 0.5 0 18.4086 0 40.5C0 62.5914 17.9086 80.5 40 80.5Z" fill="white"/>
</mask>
<g mask="url(#mask0_2074_2577)">
<path d="M22.9108 35.304C22.6939 33.1732 23.8548 31.265 25.5028 31.0429C27.1508 30.8198 28.6619 32.3676 28.8798 34.4975C29.0967 36.6287 27.9348 38.536 26.2887 38.7596C24.6398 38.9826 23.1287 37.4344 22.9108 35.304Z" fill="#FEE1B9"/>
<path d="M53.557 38.7676C51.9147 38.5846 50.806 36.7045 51.0836 34.569C51.3594 32.4321 52.9147 30.8462 54.557 31.0278C56.1984 31.2104 57.3062 33.0895 57.0295 35.2269C56.7537 37.3629 55.1984 38.9488 53.557 38.7676Z" fill="#FFD9AC"/>
<path d="M40.1266 18.1201C40.1266 18.1201 26.5723 19.8152 26.5723 27.0439C26.5723 27.0439 26.5723 36.8246 26.5723 39.6712C26.5723 42.5173 31.1741 50.6505 35.3243 50.9888C37.3986 51.1582 40.1266 51.3912 40.1266 51.3912C40.1266 51.3912 42.8546 51.1582 44.9299 50.9888C49.0786 50.6505 53.681 42.5173 53.681 39.6712C53.681 36.8246 53.681 27.0439 53.681 27.0439C53.681 19.8147 40.1266 18.1201 40.1266 18.1201Z" fill="#FEE1B9"/>
<path d="M53.6344 27.0439C53.6344 27.0439 53.6344 36.8246 53.6344 39.6712C53.6344 42.5173 49.0325 50.6505 44.8824 50.9888C42.8071 51.1582 40.0801 51.3912 40.0801 51.3912V18.1201C40.0801 18.1201 53.6344 19.8147 53.6344 27.0439Z" fill="#FFD9AC"/>
<path d="M39.9934 46.8267C41.8837 46.8267 43.4164 45.4785 43.4164 43.8154H36.5703C36.5703 45.4785 38.103 46.8267 39.9934 46.8267Z" fill="white"/>
<path d="M48.0658 35.7351C48.0658 35.0852 47.5392 34.5586 46.8898 34.5586C46.2399 34.5586 45.7129 35.0852 45.7129 35.7351C45.7129 36.3845 46.2399 36.9111 46.8898 36.9111C47.5392 36.9111 48.0658 36.3845 48.0658 35.7351Z" fill="#726658"/>
<path d="M34.394 35.2653C34.394 34.6155 33.8669 34.0889 33.217 34.0889C32.5676 34.0889 32.041 34.6155 32.041 35.2653C32.041 35.9147 32.5676 36.4413 33.217 36.4413C33.8669 36.4413 34.394 35.9147 34.394 35.2653Z" fill="#726658"/>
<path d="M68.9826 80.5005C68.9826 80.5005 66.9497 64.9908 64.0127 60.9245C60.2857 56.4064 46.4687 58.9664 46.4687 53.1188C46.4687 53.1005 46.4678 53.0887 46.4678 53.0713V47.7344H33.704V53.1344C33.6047 58.9019 19.6974 56.4224 15.9836 60.9245C13.0471 64.9908 11.0137 80.5005 11.0137 80.5005H68.9826Z" fill="#FEE1B9"/>
<path d="M40.0254 47.7348V80.5005H68.9821C68.9821 80.5005 66.9492 64.9908 64.0122 60.9245C60.2852 56.4064 46.4682 58.9664 46.4682 53.1188C46.4682 53.1005 46.4673 53.0887 46.4673 53.0713V47.7344L40.0254 47.7348Z" fill="#FFD9AC"/>
<path d="M64.0127 60.9247C60.384 56.5257 47.1958 58.8334 46.5026 53.5614C44.6984 54.4188 42.4824 54.9257 40.0852 54.9257C37.6852 54.9257 35.4673 54.4174 33.6636 53.5586C32.8923 58.776 19.6028 56.5379 15.9836 60.9247C13.0471 64.9911 11.0137 80.5007 11.0137 80.5007H68.9826C68.9826 80.5007 66.9492 64.9906 64.0127 60.9247Z" fill="#013C6B"/>
<path d="M46.5026 53.5615C44.6983 54.4189 42.4823 54.9258 40.0852 54.9258C40.0649 54.9258 40.0456 54.9244 40.0254 54.9244V80.5008H68.9821C68.9821 80.5008 66.9492 64.9912 64.0122 60.9248C60.384 56.5262 47.1957 58.8335 46.5026 53.5615Z" fill="#013864"/>
<path d="M51.4371 32.4877V24.6604C51.4371 24.6604 45.958 21.7903 40.0879 21.9206C40.0879 13.963 40.0879 10.7018 40.0879 10.7018C40.0879 10.7018 41.502 10.5001 45.502 13.1291C47.1846 13.6589 51.4371 14 51.4371 16.2767C53.5952 17.6001 55.1947 17.3685 55.1947 19.7032C55.1947 26.8783 54.0469 31.1832 54.0469 31.1832C54.0469 31.1832 52.2192 31.1832 51.4371 32.4877Z" fill="#191919"/>
<path d="M28.736 32.488V24.6607C28.736 24.6607 34.215 21.7906 40.0851 21.921C40.0851 13.9633 40.0851 10.7021 40.0851 10.7021C40.0851 10.7021 36.498 11.501 33.7221 11.6698C32.5025 12.0377 31.4607 11.5412 30.998 12.2281C29.647 12.6458 27.498 14.501 26.998 15.9074C26.5088 17.2836 24.3887 18.3171 24.3887 19.7036C24.3887 26.8786 26.1266 31.1836 26.1266 31.1836C26.1266 31.1836 27.9529 31.1836 28.736 32.488Z" fill="#343434"/>
</g>
<mask id="mask1_2074_2577" style="mask-type:luminance" maskUnits="userSpaceOnUse" x="0" y="0" width="80" height="81">
<path d="M40 80.5C62.0914 80.5 80 62.5914 80 40.5C80 18.4086 62.0914 0.5 40 0.5C17.9086 0.5 0 18.4086 0 40.5C0 62.5914 17.9086 80.5 40 80.5Z" fill="white"/>
</mask>
<g mask="url(#mask1_2074_2577)">
<path d="M35.6132 33.0263C35.5412 33.0263 35.4701 32.9934 35.424 32.9312C35.0042 32.3656 34.1628 32.0145 33.2277 32.0145C32.2927 32.0145 31.4513 32.3661 31.0315 32.9312C30.9548 33.0357 30.807 33.0578 30.7026 32.9802C30.5981 32.903 30.5764 32.7552 30.6536 32.6512C31.16 31.9684 32.1463 31.5439 33.2273 31.5439C34.3082 31.5439 35.2946 31.9679 35.8009 32.6512C35.8786 32.7557 35.8564 32.903 35.752 32.9802C35.711 33.0112 35.6616 33.0263 35.6132 33.0263Z" fill="#191919"/>
</g>
<mask id="mask2_2074_2577" style="mask-type:luminance" maskUnits="userSpaceOnUse" x="0" y="0" width="80" height="81">
<path d="M40 80.5C62.0914 80.5 80 62.5914 80 40.5C80 18.4086 62.0914 0.5 40 0.5C17.9086 0.5 0 18.4086 0 40.5C0 62.5914 17.9086 80.5 40 80.5Z" fill="white"/>
</mask>
<g mask="url(#mask2_2074_2577)">
<path d="M49.3002 33.0263C49.2282 33.0263 49.1571 32.9934 49.111 32.9312C48.6912 32.3656 47.8498 32.0145 46.9152 32.0145C45.9802 32.0145 45.1388 32.3661 44.719 32.9312C44.6423 33.0357 44.4945 33.0578 44.3901 32.9802C44.2856 32.903 44.2639 32.7552 44.3411 32.6512C44.8475 31.9684 45.8338 31.5439 46.9148 31.5439C47.9957 31.5439 48.9821 31.9679 49.4884 32.6512C49.5661 32.7557 49.5439 32.903 49.4395 32.9802C49.3981 33.0112 49.3491 33.0263 49.3002 33.0263Z" fill="#191919"/>
</g>
</svg>
